<svg width="343" height="62" viewBox="0 0 343 62" fill="none" xmlns="http://www.w3.org/2000/svg">
<path d="M148.815 0V60.8442H139.113V0H148.815Z" fill="currentColor"/>
<path d="M106.657 61.253H118.527L98.6216 35.3246C102.896 34.4575 106.341 32.4754 108.949 29.3722C111.557 26.2751 112.864 22.5711 112.864 18.26C112.864 12.7411 110.783 8.30619 106.62 4.94282C102.847 1.92012 96.7073 0.408768 88.2137 0.408768H76.8456V18.1423L94.8674 45.2599L106.657 61.253ZM86.5472 9.03709H90.0041C98.9438 9.03709 103.411 12.1527 103.411 18.3777C103.411 25.0239 98.8137 28.3502 89.6262 28.3502H86.5472V9.03709Z" fill="currentColor"/>
<path d="M27.1474 30.7906V39.4189H43.1805C42.7344 43.6928 40.6095 47.3597 36.8118 50.4258C36.6136 50.5868 36.4092 50.7417 36.2047 50.8903L42.3132 57.7286C43.7443 56.657 45.1072 55.4491 46.3896 54.0803C49.0288 51.2434 50.8997 48.1959 52.0086 44.9378C53.1486 41.4196 53.7185 37.3687 53.7185 32.7975V30.7906H27.1474Z" fill="currentColor"/>
<path d="M7.53955 15.7391C12.1488 11.298 17.8545 9.0805 24.6507 9.0805C32.2274 9.0805 38.658 12.4067 43.9301 19.0529L50.8439 12.7845C46.817 8.43013 42.722 5.28974 38.5589 3.351C34.1974 1.41845 29.5077 0.445984 24.4834 0.445984C15.1287 0.445984 7.18642 3.53063 0.66289 9.7061C0.433668 9.92289 0.216832 10.1397 0 10.3627L6.11466 17.2071C6.56691 16.7054 7.03774 16.216 7.53955 15.7391Z" fill="currentColor"/>
<path d="M175.194 0.408768V39.0597L184.896 53.6652V32.2896H206.504V23.655H184.896V9.03709H206.523V0.408768H175.194Z" fill="currentColor"/>
<path d="M264.888 9.03709V0.408768H232.784V39.0597L242.486 53.6652V32.2896H264.101V23.655H242.486V9.03709H264.888Z" fill="currentColor"/>
<path d="M312.5 0C329.345 2.57704e-07 343 13.6553 343 30.5C343 47.3447 329.345 61 312.5 61C295.655 61 282 47.3447 282 30.5C282 13.6553 295.655 0 312.5 0ZM312.5 11.2959C301.894 11.2959 293.296 19.8941 293.296 30.5C293.296 41.1059 301.894 49.7041 312.5 49.7041C314.808 49.7041 317.02 49.2952 319.07 48.5488L312.5 32.0645L328.648 40.8975C330.581 37.9008 331.704 34.3316 331.704 30.5C331.704 19.8941 323.106 11.2959 312.5 11.2959Z" fill="currentColor"/>
</svg>
