<svg width="61" height="61" viewBox="0 0 61 61" fill="none" xmlns="http://www.w3.org/2000/svg">
<path d="M30.5 0C47.3447 2.57704e-07 61 13.6553 61 30.5C61 47.3447 47.3447 61 30.5 61C13.6553 61 2.5772e-07 47.3447 0 30.5C0 13.6553 13.6553 0 30.5 0ZM30.5 11.2959C19.8941 11.2959 11.2959 19.8941 11.2959 30.5C11.2959 41.1059 19.8941 49.7041 30.5 49.7041C32.808 49.7041 35.0204 49.2952 37.0703 48.5488L30.5 32.0645L46.6475 40.8975C48.581 37.9008 49.7041 34.3316 49.7041 30.5C49.7041 19.8941 41.1059 11.2959 30.5 11.2959Z" fill="black"/>
</svg>
